<svg xmlns="http://www.w3.org/2000/svg" xmlns:xlink="http://www.w3.org/1999/xlink"><symbol id="checked" viewBox="0 0 12 8">
<path d="M9.89355 0.545747L4.54988 5.88946L2.10674 3.44632C1.81862 3.15826 1.35157 3.15826 1.06345 3.44632C0.775398 3.73444 0.775398 4.20149 1.06345 4.4896L4.02824 7.45438C4.1723 7.59838 4.36109 7.67044 4.54988 7.67044C4.73868 7.67044 4.92747 7.59838 5.07153 7.45438L10.9368 1.58909C11.2249 1.30097 11.2249 0.833922 10.9368 0.545806C10.6487 0.25769 10.1816 0.25769 9.89355 0.545747Z" fill="#0971F5"/>
</symbol><symbol id="facebook" viewBox="0 0 22 23">
<path d="M11 0.456665C4.92485 0.456665 0 5.35305 0 11.3931C0 17.4331 4.92485 22.3295 11 22.3295C17.0752 22.3295 22 17.4331 22 11.3931C22 5.35305 17.0752 0.456665 11 0.456665ZM15.1965 6.02613L13.6751 6.0268C12.482 6.0268 12.2514 6.59046 12.2514 7.41748V9.24115H15.0964L15.095 12.0975H12.2516V19.4275H9.28411V12.0975H6.80346V9.24115H9.28411V7.13465C9.28411 4.69004 10.7864 3.35865 12.9797 3.35865L15.1968 3.362V6.02613H15.1965Z" fill="currentColor"/>
</symbol><symbol id="instagram" viewBox="0 0 22 23">
<path d="M11.0156 14.4945C12.8135 14.4945 14.2711 13.0903 14.2711 11.358C14.2711 9.62581 12.8135 8.22156 11.0156 8.22156C9.21757 8.22156 7.76001 9.62581 7.76001 11.358C7.76001 13.0903 9.21757 14.4945 11.0156 14.4945Z" fill="currentColor"/>
<path d="M16.0545 11.5331C16.0545 14.214 13.7985 16.387 11.0156 16.387C8.23266 16.387 5.97662 14.214 5.97662 11.5331C5.97662 11.0527 6.04954 10.5886 6.18458 10.1503H4.69556V16.9587C4.69556 17.3114 4.98544 17.5993 5.33991 17.5993H16.6289C16.9836 17.5993 17.2737 17.3114 17.2737 16.9587V10.1503H15.8466C15.9814 10.5886 16.0545 11.0527 16.0545 11.5331Z" fill="currentColor"/>
<path d="M14.7039 8.31295H16.5361C16.9376 8.31295 17.2658 7.9867 17.2658 7.58751V5.85066C17.2658 5.45125 16.9376 5.125 16.5361 5.125H14.7039C14.3021 5.125 13.974 5.45125 13.974 5.85066V7.58751C13.9738 7.98648 14.3021 8.31295 14.7039 8.31295Z" fill="currentColor"/>
<path d="M11 0.456665C4.92485 0.456665 0 5.35305 0 11.3931C0 17.4331 4.92485 22.3295 11 22.3295C17.0752 22.3295 22 17.4331 22 11.3931C22 5.35305 17.0752 0.456665 11 0.456665ZM17.025 19.4521H4.97526C3.83036 19.4521 2.89432 18.6097 2.89432 17.3837V5.40295C2.89432 4.1765 3.83036 3.33426 4.97526 3.33426H17.025C18.1696 3.33426 19.1059 4.1765 19.1059 5.40295V17.3837C19.1059 18.6097 18.1694 19.4521 17.025 19.4521Z" fill="currentColor"/>
</symbol><symbol id="loader"><g transform="translate(4 4)" stroke-width="8" fill="none" fill-rule="evenodd"><circle stroke-opacity=".3" cx="30" cy="30" r="30"/><path d="M60 30c0-9.94-8.06-30-30-30"><animateTransform attributeName="transform" type="rotate" from="0 30 30" to="360 30 30" dur="1s" repeatCount="indefinite"/></path></g></symbol><symbol id="logo" viewBox="0 0 112 24">
<mask id="mask0" mask-type="alpha" maskUnits="userSpaceOnUse" x="0" y="0" width="112" height="24">
<path d="M0 0H112V24H0V0Z" fill="white"/>
</mask>
<g mask="url(#mask0)">
<path fill-rule="evenodd" clip-rule="evenodd" d="M107.57 23.6813H112V0H107.57V23.6813Z" fill="#404042"/>
<path fill-rule="evenodd" clip-rule="evenodd" d="M30.6403 12.6864H24.0916C24.2614 11.1493 24.5901 9.52745 27.3238 9.52745C30.487 9.52745 30.5608 11.0511 30.6321 12.5244C30.6349 12.5787 30.6373 12.633 30.6403 12.6864ZM27.4779 5.81836H27.262C25.4623 5.81836 22.9771 6.20483 21.3605 8.04468C19.9648 9.60259 19.1646 11.9339 19.1646 14.4417V15.0822C19.1646 15.5 19.2215 17.6941 20.3495 19.8155C21.5203 22.0179 23.4519 23.3296 25.9352 23.6089C26.3622 23.6572 26.822 23.6816 27.3014 23.6816C30.2797 23.6816 33.2118 22.7696 33.3351 22.7305L33.5405 22.6657V19.2981C33.5405 19.2981 29.6745 19.7353 28.3978 19.7764C24.4963 19.9033 24.0375 17.908 23.9903 16.3383H34.9371V13.3308C34.9371 10.8578 34.3082 9.02611 33.0167 7.73215C31.4617 6.15018 29.1466 5.81836 27.4779 5.81836Z" fill="#404042"/>
<path fill-rule="evenodd" clip-rule="evenodd" d="M56.1811 12.7086H49.6326C49.8022 11.1715 50.1313 9.54957 52.8646 9.54957C56.0281 9.54957 56.1019 11.0732 56.1731 12.5465C56.1757 12.6008 56.1783 12.6551 56.1811 12.7086ZM53.019 5.84033H52.8033C51.0034 5.84033 48.5184 6.2268 46.9016 8.06666C45.5058 9.62456 44.7053 11.9559 44.7053 14.4637V15.1041C44.7053 15.522 44.7625 17.7161 45.8903 19.8375C47.0614 22.0399 48.9929 23.3516 51.4759 23.6308C51.903 23.6791 52.363 23.7036 52.8424 23.7036C55.8207 23.7036 58.7528 22.7915 58.8765 22.7524L59.0816 22.6877V19.3201C59.0816 19.3201 55.2155 19.7572 53.9386 19.7984C50.0373 19.9252 49.5786 17.93 49.5311 16.3603H60.4781V13.3528C60.4781 10.8797 59.8493 9.04809 58.558 7.75412C57.0028 6.17215 54.6874 5.84033 53.019 5.84033Z" fill="#404042"/>
<path fill-rule="evenodd" clip-rule="evenodd" d="M100.354 12.7086H93.805C93.9745 11.1715 94.3036 9.54957 97.037 9.54957C100.2 9.54957 100.274 11.0732 100.346 12.5465C100.348 12.6008 100.351 12.6551 100.354 12.7086ZM97.1914 5.84033H96.9757C95.1758 5.84033 92.6908 6.2268 91.0742 8.06666C89.6785 9.62456 88.8779 11.9559 88.8779 14.4637V15.1041C88.8779 15.522 88.9352 17.7161 90.0632 19.8375C91.2343 22.0399 93.1656 23.3516 95.6483 23.6308C96.0756 23.6791 96.5354 23.7036 97.0147 23.7036C99.9931 23.7036 102.925 22.7915 103.049 22.7524L103.254 22.6877V19.3201C103.254 19.3201 99.3879 19.7572 98.111 19.7984C94.21 19.9252 93.751 17.93 93.7038 16.3603H104.651V13.3528C104.651 10.8797 104.022 9.04809 102.73 7.75412C101.175 6.17215 98.8597 5.84033 97.1914 5.84033Z" fill="#404042"/>
<path fill-rule="evenodd" clip-rule="evenodd" d="M37.8567 23.7036H42.287V0H37.8567V23.7036Z" fill="#404042"/>
<path fill-rule="evenodd" clip-rule="evenodd" d="M5.97718 13.2315C7.09649 13.6695 10.1487 14.8679 10.819 15.1506C11.2701 15.3406 11.6063 15.6334 11.8187 16.0213L11.9023 16.174H16.6871L16.6467 15.8278C16.2104 12.0633 13.7592 11.1219 11.3884 10.2115C10.5928 9.90624 9.17369 9.39836 8.13742 9.02766C7.56306 8.82196 7.10925 8.65968 6.99121 8.61395C5.62047 8.08009 4.49757 7.52018 4.64219 6.06839C4.76458 4.8388 5.74195 4.33394 8.0148 4.32558C10.312 4.33068 14.9536 4.73802 15.0003 4.74208L15.3128 4.76989V0.952989L15.0952 0.893557C15.0635 0.885192 10.6758 0.0179253 7.95483 0.000318672L7.84244 0C5.8651 0 4.22498 0.356514 2.96701 1.05982C0.998068 2.16052 0 4.06626 0 6.72303C0 9.64461 1.78749 11.5909 5.97718 13.2315Z" fill="#C02C25"/>
<path fill-rule="evenodd" clip-rule="evenodd" d="M11.8668 18.2354C11.3365 19.3972 9.85684 19.5075 8.36563 19.5075H8.18632C5.80666 19.5075 0.690569 18.9575 0.639306 18.9518L0.320801 18.9174V22.9831L0.539453 23.0403C0.576048 23.0502 4.84282 23.9997 7.96362 23.9997C13.2167 23.9997 16.2138 22.0077 16.6544 18.2354H11.8668Z" fill="#404042"/>
<path fill-rule="evenodd" clip-rule="evenodd" d="M83.1189 9.75352H87.0582V5.99247H83.1189V0H78.6294V16.1927H83.1189V9.75352Z" fill="#C02C25"/>
<path fill-rule="evenodd" clip-rule="evenodd" d="M85.188 19.7282C83.792 19.7282 83.1818 19.2959 83.1243 18.249H78.6311C78.6688 21.9209 81.0493 23.4455 83.28 23.6445C83.442 23.659 83.6227 23.6661 83.8166 23.6661C85.1875 23.6661 87.2025 23.2471 87.2025 23.2471V19.5992C87.2025 19.5992 85.5938 19.7282 85.188 19.7282Z" fill="#404042"/>
<path fill-rule="evenodd" clip-rule="evenodd" d="M71.3303 5.92041C70.6022 5.92041 69.9367 5.95722 69.3523 6.02964C66.9369 6.32831 65.0781 7.69271 63.9775 9.974C62.9746 12.0544 62.8965 14.197 62.8965 14.804C62.8965 15.4079 62.9746 17.539 63.9802 19.6146C65.0807 21.8854 66.9375 23.256 69.3496 23.5788C69.86 23.6469 70.4655 23.6815 71.1496 23.6815C73.2415 23.6815 75.4519 23.357 75.4736 23.3536L75.7216 23.3168V19.536C75.7216 19.536 73.2993 19.7063 72.082 19.7063C70.5699 19.7063 69.9172 19.6059 69.6358 19.5213C67.9314 19.0098 67.7602 16.3277 67.766 15.1995C67.767 15.0646 67.767 14.5435 67.766 14.41C67.7602 13.2541 67.9298 10.5191 69.6243 10.0902C70.1195 9.96492 70.9961 9.89871 72.158 9.89871C73.3712 9.89871 75.7216 10.0722 75.7216 10.0722V6.27374L75.4758 6.23502C75.4562 6.23215 73.4465 5.92041 71.3303 5.92041Z" fill="#404042"/>
</g>
</symbol><symbol id="mail" viewBox="0 0 16 12">
<path d="M14.4 0H1.6C0.72 0 0.00799999 0.675 0.00799999 1.5L0 10.5C0 11.325 0.72 12 1.6 12H14.4C15.28 12 16 11.325 16 10.5V1.5C16 0.675 15.28 0 14.4 0ZM14.4 3L8 6.75L1.6 3V1.5L8 5.25L14.4 1.5V3Z" fill="currentColor"/>
</symbol><symbol id="phone" viewBox="0 0 12 13">
<path d="M11.34 8.94111C10.52 8.94111 9.72667 8.79667 8.98667 8.53667C8.75333 8.45 8.49333 8.515 8.31333 8.71L7.26667 10.1328C5.38 9.15778 3.61333 7.31611 2.67333 5.2L3.97333 4.00111C4.15333 3.79889 4.20667 3.51722 4.13333 3.26444C3.88667 2.46278 3.76 1.60333 3.76 0.715C3.76 0.325 3.46 0 3.1 0H0.793333C0.433333 0 0 0.173333 0 0.715C0 7.42444 5.15333 13 11.34 13C11.8133 13 12 12.545 12 12.1478V9.65611C12 9.26611 11.7 8.94111 11.34 8.94111Z" fill="currentColor"/>
</symbol><symbol id="telegram" viewBox="0 0 12 12">
<path d="M12 0L0 5.02V5.67333L4.56 7.44L6.32 12H6.97333L12 0Z" fill="currentColor"/>
</symbol><symbol id="twitter" viewBox="0 0 22 23">
<path d="M11 0.456665C4.92485 0.456665 0 5.35305 0 11.3931C0 17.4331 4.92485 22.3295 11 22.3295C17.0752 22.3295 22 17.4331 22 11.3931C22 5.35305 17.0752 0.456665 11 0.456665ZM17.6518 8.47655C17.6569 8.60567 17.6596 8.735 17.6596 8.86501C17.6596 13.5367 14.0841 18.3689 8.1005 18.3689C6.27141 18.3689 4.49048 17.85 2.95036 16.8679C2.91818 16.8475 2.9049 16.8079 2.91773 16.7723C2.93056 16.737 2.96679 16.7151 3.00393 16.7193C3.2623 16.75 3.52653 16.7652 3.78873 16.7652C5.21181 16.7652 6.55904 16.3277 7.69854 15.4978C6.33262 15.3832 5.15869 14.4642 4.73647 13.1532C4.72769 13.1259 4.73399 13.0961 4.7529 13.0747C4.77203 13.0532 4.80129 13.0438 4.8292 13.0489C5.20775 13.1203 5.59261 13.125 5.96352 13.065C4.55484 12.6298 3.56479 11.3179 3.56479 9.82428L3.56524 9.78087C3.56591 9.75245 3.58144 9.72649 3.6062 9.7124C3.63073 9.69808 3.66134 9.69785 3.6861 9.71173C4.0534 9.91446 4.45987 10.0447 4.87691 10.0946C4.06736 9.45306 3.59202 8.48058 3.59202 7.44031C3.59202 6.84018 3.75182 6.25034 4.0543 5.73456C4.06781 5.71152 4.09166 5.69675 4.11822 5.69473C4.145 5.69205 4.17089 5.70368 4.18776 5.72427C5.84469 7.74485 8.2819 8.98897 10.8881 9.14896C10.8447 8.93147 10.8226 8.70725 10.8226 8.48103C10.8226 6.61015 12.3535 5.08834 14.2351 5.08834C15.1601 5.08834 16.054 5.46627 16.6948 6.12682C17.417 5.98048 18.105 5.71644 18.7406 5.34186C18.7697 5.32463 18.8061 5.32731 18.8329 5.34812C18.859 5.36916 18.8698 5.40407 18.8595 5.43629C18.6441 6.10601 18.2241 6.69025 17.6599 7.11205C18.1912 7.02008 18.7069 6.86479 19.1973 6.64841C19.2301 6.63342 19.2691 6.64282 19.2927 6.67034C19.3161 6.69809 19.3181 6.73769 19.2979 6.76768C18.8511 7.43248 18.2975 8.00732 17.6518 8.47655Z" fill="currentColor"/>
</symbol><symbol id="vk" viewBox="0 0 22 23">
<path d="M11 0.456665C4.92507 0.456665 0 5.35305 0 11.3931C0 17.4331 4.92507 22.3295 11 22.3295C17.0749 22.3295 22 17.4331 22 11.3931C22 5.35305 17.0749 0.456665 11 0.456665ZM16.5798 12.5759C17.0925 13.0738 17.6349 13.5423 18.0951 14.0917C18.299 14.3347 18.4913 14.586 18.6375 14.8686C18.8464 15.2716 18.6578 15.7135 18.295 15.7374L16.0414 15.737C15.4594 15.7849 14.9962 15.5515 14.6058 15.1559C14.294 14.8406 14.0048 14.5038 13.7046 14.1778C13.5819 14.044 13.4527 13.918 13.2988 13.8189C12.9916 13.6202 12.7247 13.6811 12.5487 14.0001C12.3693 14.3248 12.3283 14.6846 12.3112 15.046C12.2867 15.5743 12.1264 15.7124 11.5933 15.7372C10.454 15.7902 9.37301 15.6184 8.36833 15.0474C7.48203 14.5437 6.79603 13.8328 6.19826 13.0279C5.03423 11.4589 4.14275 9.73679 3.34175 7.96526C3.16147 7.56629 3.29336 7.35282 3.73606 7.34454C4.47157 7.33044 5.20708 7.33223 5.94259 7.34387C6.24192 7.34857 6.43998 7.51885 6.55499 7.79967C6.95245 8.77192 7.43971 9.69696 8.05031 10.5549C8.21303 10.7833 8.37913 11.0111 8.61567 11.1725C8.87675 11.3506 9.0757 11.2917 9.19881 11.0019C9.27759 10.8178 9.31157 10.6209 9.32868 10.4235C9.38719 9.74753 9.39417 9.07176 9.29289 8.39846C9.22987 7.97712 8.99153 7.70502 8.56908 7.62536C8.35392 7.58486 8.38543 7.50565 8.49009 7.38347C8.67171 7.17224 8.84186 7.04156 9.18193 7.04156L11.7281 7.04112C12.1294 7.11943 12.2194 7.29844 12.2739 7.70032L12.2761 10.5135C12.2714 10.669 12.3547 11.1299 12.6355 11.2317C12.8606 11.3056 13.0091 11.1261 13.1437 10.9845C13.7543 10.3403 14.1894 9.57993 14.579 8.79296C14.7509 8.4459 14.8992 8.08676 15.0433 7.72695C15.1504 7.4609 15.317 7.32999 15.619 7.33447L18.0708 7.33738C18.1431 7.33738 18.2164 7.33805 18.288 7.35036C18.7012 7.42062 18.8144 7.59739 18.6866 7.99815C18.4854 8.62782 18.0945 9.15232 17.7123 9.67816C17.3027 10.2411 16.8658 10.7844 16.4603 11.3499C16.0876 11.8668 16.1171 12.127 16.5798 12.5759Z" fill="currentColor"/>
</symbol></svg>