<svg width="22" height="23" viewBox="0 0 22 23" fill="none" xmlns="http://www.w3.org/2000/svg"><path d="M11.016 14.495c1.797 0 3.255-1.405 3.255-3.137s-1.458-3.136-3.255-3.136c-1.798 0-3.256 1.404-3.256 3.136 0 1.732 1.458 3.136 3.256 3.136z" fill="currentColor"/><path d="M16.055 11.533c0 2.681-2.256 4.854-5.04 4.854-2.782 0-5.038-2.173-5.038-4.854 0-.48.073-.944.208-1.383h-1.49v6.809c0 .352.29.64.645.64h11.289a.644.644 0 00.645-.64V10.15h-1.427c.134.439.208.903.208 1.383zm-1.351-3.22h1.832a.73.73 0 00.73-.725V5.85a.73.73 0 00-.73-.726h-1.832a.73.73 0 00-.73.726v1.737a.73.73 0 00.73.725z" fill="currentColor"/><path d="M11 .457C4.925.457 0 5.353 0 11.393S4.925 22.33 11 22.33s11-4.896 11-10.936S17.075.457 11 .457zm6.025 18.995H4.975c-1.145 0-2.08-.842-2.08-2.068V5.403c0-1.226.935-2.069 2.08-2.069h12.05c1.145 0 2.08.842 2.08 2.069v11.98c0 1.227-.936 2.07-2.08 2.07z" fill="currentColor"/></svg>