<svg width="112" height="24" viewBox="0 0 112 24" fill="none" xmlns="http://www.w3.org/2000/svg"><mask id="a" maskUnits="userSpaceOnUse" x="0" y="0" width="112" height="24"><path d="M0 0h112v24H0V0z" fill="#fff"/></mask><g mask="url(#a)" fill-rule="evenodd" clip-rule="evenodd"><path d="M107.57 23.681H112V0h-4.43v23.681zM30.64 12.686h-6.548c.17-1.537.498-3.159 3.232-3.159 3.163 0 3.237 1.524 3.308 2.997l.008.162zm-3.162-6.868h-.216c-1.8 0-4.285.387-5.902 2.227-1.395 1.558-2.195 3.889-2.195 6.397v.64c0 .418.056 2.612 1.184 4.733 1.171 2.203 3.103 3.515 5.586 3.794.427.048.887.073 1.366.073 2.979 0 5.91-.912 6.034-.951l.206-.065v-3.368s-3.866.437-5.143.478c-3.902.127-4.36-1.868-4.408-3.438h10.947v-3.007c0-2.473-.629-4.305-1.92-5.599-1.555-1.582-3.87-1.914-5.54-1.914zm28.703 6.891h-6.548c.17-1.537.498-3.16 3.232-3.16 3.163 0 3.237 1.524 3.308 2.998l.008.162zM53.02 5.84h-.216c-1.8 0-4.285.387-5.901 2.227-1.396 1.558-2.197 3.889-2.197 6.397v.64c0 .418.058 2.612 1.185 4.733 1.171 2.203 3.103 3.515 5.586 3.794.427.048.887.073 1.366.073 2.979 0 5.91-.913 6.035-.952l.205-.064V19.32s-3.867.437-5.143.478c-3.902.127-4.36-1.868-4.408-3.438h10.947v-3.007c0-2.473-.629-4.305-1.92-5.599-1.555-1.582-3.87-1.914-5.539-1.914zm47.334 6.869h-6.549c.17-1.537.499-3.16 3.232-3.16 3.163 0 3.237 1.524 3.309 2.998l.008.162zM97.191 5.84h-.215c-1.8 0-4.285.387-5.902 2.227-1.395 1.558-2.196 3.889-2.196 6.397v.64c0 .418.057 2.612 1.185 4.733 1.171 2.203 3.103 3.515 5.585 3.794.428.048.887.073 1.367.073 2.978 0 5.91-.913 6.034-.952l.205-.064V19.32s-3.866.437-5.143.478c-3.901.127-4.36-1.868-4.407-3.438h10.947v-3.007c0-2.473-.629-4.305-1.921-5.599-1.555-1.582-3.87-1.914-5.539-1.914zM37.857 23.704h4.43V0h-4.43v23.704z" fill="#404042"/><path d="M5.977 13.232c1.12.438 4.172 1.636 4.842 1.919.451.19.787.482 1 .87l.083.153h4.785l-.04-.346c-.437-3.765-2.888-4.706-5.259-5.617-.795-.305-2.214-.813-3.25-1.183-.575-.206-1.029-.368-1.147-.414-1.37-.534-2.493-1.094-2.349-2.546.123-1.23 1.1-1.734 3.373-1.742 2.297.005 6.939.412 6.985.416l.313.028V.953l-.218-.06C15.063.886 10.675.019 7.955 0h-.113C5.865 0 4.225.357 2.967 1.06.998 2.16 0 4.066 0 6.723c0 2.922 1.787 4.868 5.977 6.509z" fill="#C02C25"/><path d="M11.867 18.235c-.53 1.162-2.01 1.273-3.501 1.273h-.18c-2.38 0-7.495-.55-7.547-.556l-.318-.035v4.066l.218.057c.037.01 4.304.96 7.425.96 5.253 0 8.25-1.992 8.69-5.765h-4.787z" fill="#404042"/><path d="M83.119 9.754h3.94V5.992h-3.94V0h-4.49v16.193h4.49v-6.44z" fill="#C02C25"/><path d="M85.188 19.728c-1.396 0-2.006-.432-2.064-1.479h-4.493c.038 3.672 2.418 5.197 4.649 5.396.162.014.343.021.537.021 1.37 0 3.386-.419 3.386-.419V19.6s-1.61.13-2.015.13zM71.33 5.92c-.728 0-1.393.037-1.978.11-2.415.298-4.274 1.663-5.375 3.944-1.002 2.08-1.08 4.223-1.08 4.83 0 .604.078 2.735 1.083 4.81 1.1 2.271 2.958 3.642 5.37 3.965.51.068 1.116.102 1.8.102 2.091 0 4.302-.324 4.324-.327l.248-.037v-3.781s-2.423.17-3.64.17c-1.512 0-2.165-.1-2.446-.185-1.705-.511-1.876-3.193-1.87-4.322v-.789c-.006-1.156.164-3.89 1.858-4.32.496-.125 1.372-.191 2.534-.191 1.213 0 3.564.173 3.564.173V6.274l-.246-.039c-.02-.003-2.03-.315-4.146-.315z" fill="#404042"/></g></svg>