<svg width="22" height="23" viewBox="0 0 22 23" fill="none" xmlns="http://www.w3.org/2000/svg"><path d="M11 .457C4.925.457 0 5.353 0 11.393S4.925 22.33 11 22.33s11-4.896 11-10.936S17.075.457 11 .457zm6.652 8.02c.005.129.008.258.008.388 0 4.672-3.576 9.504-9.56 9.504a9.562 9.562 0 01-5.15-1.501.08.08 0 01-.032-.096.082.082 0 01.086-.053c.258.031.523.046.785.046 1.423 0 2.77-.437 3.91-1.267a3.408 3.408 0 01-2.963-2.345.081.081 0 01.093-.104c.379.071.764.076 1.135.016a3.406 3.406 0 01-2.4-3.24l.001-.044a.08.08 0 01.041-.069.08.08 0 01.08 0c.367.202.774.333 1.19.383a3.381 3.381 0 01-.822-4.36.081.081 0 01.064-.04.08.08 0 01.07.03 9.428 9.428 0 006.7 3.424 3.417 3.417 0 01-.065-.668c0-1.87 1.53-3.393 3.412-3.393a3.44 3.44 0 012.46 1.039 6.602 6.602 0 002.046-.785.081.081 0 01.119.094 3.389 3.389 0 01-1.2 1.676 6.59 6.59 0 001.537-.464.082.082 0 01.096.022.08.08 0 01.005.098 6.78 6.78 0 01-1.646 1.709z" fill="currentColor"/></svg>