<svg width="22" height="23" viewBox="0 0 22 23" fill="none" xmlns="http://www.w3.org/2000/svg"><path d="M11 .457C4.925.457 0 5.353 0 11.393S4.925 22.33 11 22.33s11-4.896 11-10.936S17.075.457 11 .457zm5.58 12.119c.513.498 1.055.966 1.515 1.516.204.243.396.494.543.777.208.403.02.845-.343.868h-2.254c-.582.048-1.045-.185-1.435-.581-.312-.315-.601-.652-.901-.978a2.105 2.105 0 00-.406-.36c-.307-.198-.574-.137-.75.182-.18.325-.22.685-.238 1.046-.024.528-.185.666-.718.691-1.139.053-2.22-.119-3.225-.69-.886-.503-1.572-1.214-2.17-2.02-1.164-1.568-2.055-3.29-2.856-5.062-.18-.399-.049-.612.394-.62a63.056 63.056 0 012.207-.001c.299.005.497.175.612.456a13.59 13.59 0 001.495 2.755c.163.228.33.456.566.617.26.179.46.12.583-.17.079-.184.113-.381.13-.579.058-.675.065-1.351-.036-2.025-.063-.42-.301-.693-.724-.773-.215-.04-.184-.12-.079-.242.182-.21.352-.341.692-.341h2.546c.401.077.491.256.546.658l.002 2.814c-.005.155.079.616.36.718.225.074.373-.106.508-.247.61-.645 1.045-1.405 1.435-2.192.172-.347.32-.706.464-1.066.107-.266.274-.397.576-.393l2.452.003c.072 0 .145.001.217.013.413.07.526.247.399.648-.202.63-.593 1.154-.975 1.68-.41.563-.846 1.106-1.252 1.672-.372.517-.343.777.12 1.226z" fill="currentColor"/></svg>